<svg width="76" height="75" viewBox="0 0 76 75" fill="none" xmlns="http://www.w3.org/2000/svg">
<rect x="0.5" y="0.226562" width="75" height="74" rx="37" fill="#EDF2F7"/>
<path d="M43.3015 30.6268C43.3015 33.3606 41.1525 35.5768 38.5016 35.5768C35.8506 35.5768 33.7016 33.3606 33.7016 30.6268C33.7016 27.8929 35.8506 25.6768 38.5016 25.6768C41.1525 25.6768 43.3015 27.8929 43.3015 30.6268Z" fill="#A0AEC0"/>
<path d="M51.3015 33.9268C51.3015 35.7493 49.8689 37.2268 48.1015 37.2268C46.3342 37.2268 44.9015 35.7493 44.9015 33.9268C44.9015 32.1042 46.3342 30.6268 48.1015 30.6268C49.8689 30.6268 51.3015 32.1042 51.3015 33.9268Z" fill="#A0AEC0"/>
<path d="M44.9015 45.4768C44.9015 41.8317 42.0362 38.8768 38.5016 38.8768C34.9669 38.8768 32.1016 41.8317 32.1016 45.4768V50.4268H44.9015V45.4768Z" fill="#A0AEC0"/>
<path d="M32.1016 33.9268C32.1016 35.7493 30.6689 37.2268 28.9016 37.2268C27.1342 37.2268 25.7016 35.7493 25.7016 33.9268C25.7016 32.1042 27.1342 30.6268 28.9016 30.6268C30.6689 30.6268 32.1016 32.1042 32.1016 33.9268Z" fill="#A0AEC0"/>
<path d="M48.1015 50.4268V45.4768C48.1015 43.7374 47.6666 42.1028 46.9027 40.6824C47.2859 40.5808 47.6876 40.5268 48.1015 40.5268C50.7525 40.5268 52.9015 42.7429 52.9015 45.4768V50.4268H48.1015Z" fill="#A0AEC0"/>
<path d="M30.1004 40.6824C29.3365 42.1028 28.9016 43.7374 28.9016 45.4768V50.4268H24.1016V45.4768C24.1016 42.7429 26.2506 40.5268 28.9016 40.5268C29.3155 40.5268 29.7172 40.5808 30.1004 40.6824Z" fill="#A0AEC0"/>
</svg>
