<svg width="195" height="175" viewBox="0 0 195 175" fill="none" xmlns="http://www.w3.org/2000/svg">
<g filter="url(#filter0_d_1800_13781)">
<path d="M112.098 130.353C107.71 133.479 102.983 134.876 98.2017 134.19C97.3842 134.075 96.6306 133.959 95.9134 133.843C89.431 132.745 86.4076 131.075 72.3275 120.805C56.6983 109.416 45.6398 113.019 34.9087 98.0012C24.1729 82.9791 32.8036 65.5799 54.716 57.5963C71.2107 51.5954 76.6967 39.2888 92.2164 36.257C105.843 33.5905 114.422 40.7458 120.186 45.3073C137.063 58.6494 136.353 80.2239 129.91 101.577C125.867 114.964 119.468 125.105 112.098 130.353Z" fill="white"/>
</g>
<path opacity="0.2" d="M59.3725 42.4364C52.9515 46.0706 47.4067 46.0529 45.199 42.6916C43.5294 40.1457 41.9204 34.0244 54.4809 29.3395C67.0413 24.6546 71.3301 19.122 74.745 19.4983C77.5252 19.8034 78.2833 24.4422 73.6743 30.2927C69.6002 35.4492 62.3813 40.7284 59.3725 42.4364Z" fill="#A0AEC0"/>
<path opacity="0.2" d="M140.553 92.9197C142.801 95.1209 146.406 95.085 148.605 92.8394C150.804 90.5939 150.764 86.9891 148.516 84.7879C146.268 82.5867 142.663 82.6226 140.464 84.8681C138.265 87.1137 138.305 90.7185 140.553 92.9197Z" fill="#A0AEC0"/>
<path d="M121.374 82.6992C122.904 84.1974 125.358 84.173 126.854 82.6446C128.351 81.1162 128.324 78.6626 126.794 77.1644C125.264 75.6662 122.81 75.6907 121.314 77.2191C119.817 78.7474 119.844 81.201 121.374 82.6992Z" fill="white"/>
<path opacity="0.2" d="M137.093 58.8879C136.358 59.6385 135.154 59.6505 134.403 58.9147C133.651 58.179 133.638 56.9754 134.373 56.2248C135.108 55.4743 136.312 55.4623 137.063 56.198C137.81 56.9292 137.828 58.1374 137.093 58.8879Z" fill="#A0AEC0"/>
<path opacity="0.2" d="M42.645 58.4006C43.396 59.136 44.6003 59.124 45.3349 58.3738C46.0695 57.6236 46.0562 56.4192 45.3052 55.6839C44.5541 54.9485 43.3498 54.9605 42.6152 55.7107C41.8806 56.4609 41.8939 57.6652 42.645 58.4006Z" fill="#A0AEC0"/>
<g clip-path="url(#clip0_1800_13781)">
<g filter="url(#filter1_d_1800_13781)">
<path d="M140.857 139.782L116.816 130.601L90.4374 141.166L61.7933 130.528L39.8718 138.907C37.8989 139.636 35.8529 137.814 36.4374 135.774L50.1018 88.63C50.5403 87.0999 51.6363 85.7883 53.0978 85.1325L75.0193 74.8584L90.4374 85.934L105.49 76.3885L129.75 87.027C131.357 87.7557 132.527 89.1401 132.892 90.816L144.291 136.794C144.803 138.762 142.83 140.51 140.857 139.782Z" fill="url(#paint0_linear_1800_13781)"/>
</g>
<path d="M75.0193 74.9312L61.7933 130.528L39.8718 138.907C37.8989 139.636 35.8529 137.814 36.4374 135.774L50.1018 88.6301C50.5403 87.0999 51.6363 85.7882 53.0978 85.1325L75.0193 74.9312Z" fill="#EDF2F7"/>
<path d="M140.711 140.073L116.67 130.892L105.344 76.7529L129.604 87.3913C131.211 88.12 132.38 89.5044 132.746 91.1804L144.145 137.158C144.656 139.126 142.684 140.875 140.711 140.073Z" fill="white"/>
<path d="M116.889 130.601L90.4375 141.166V85.9339L105.49 76.3884L116.889 130.601Z" fill="#EDF2F7"/>
<path d="M66.8352 117.922C66.7621 117.922 66.6891 117.922 66.5429 117.922C66.2506 117.849 66.0314 117.849 65.7391 117.776C64.9353 117.558 64.4969 116.829 64.6431 116.028C64.7892 115.226 65.593 114.789 66.3968 114.935C66.616 115.007 66.8352 115.007 67.0544 115.08C67.8582 115.226 68.3697 115.955 68.2236 116.756C68.1505 117.485 67.5659 117.922 66.8352 117.922ZM71.9502 117.776C71.2926 117.776 70.708 117.339 70.5619 116.683C70.3426 115.882 70.8542 115.08 71.6579 114.935C71.8772 114.862 72.0964 114.789 72.3156 114.789C73.1194 114.57 73.9232 115.007 74.1424 115.736C74.3616 116.538 73.9232 117.339 73.1924 117.558C72.9002 117.631 72.6809 117.704 72.3887 117.776C72.1694 117.776 72.0233 117.776 71.9502 117.776ZM61.501 115.736C61.2087 115.736 60.9164 115.663 60.6972 115.518C60.478 115.372 60.2588 115.226 60.0395 115.08C59.3819 114.643 59.2357 113.696 59.6742 113.04C60.1126 112.384 61.0625 112.239 61.7202 112.676C61.9394 112.822 62.0855 112.967 62.3048 113.04C62.9624 113.477 63.1816 114.352 62.7432 115.08C62.4509 115.518 62.0125 115.736 61.501 115.736ZM77.2114 115.372C76.773 115.372 76.2615 115.153 75.9692 114.716C75.5307 114.06 75.6769 113.113 76.4076 112.676C76.6268 112.53 76.773 112.457 76.9922 112.311C77.6498 111.874 78.5998 112.02 79.0382 112.676C79.4766 113.332 79.3305 114.279 78.6728 114.716C78.4536 114.862 78.2344 115.007 78.0152 115.153C77.796 115.226 77.5037 115.372 77.2114 115.372ZM114.04 113.623C113.309 113.623 112.651 113.04 112.578 112.239C112.505 111.437 113.163 110.708 113.966 110.708C114.113 110.708 114.332 110.708 114.551 110.636C115.355 110.49 116.086 111 116.232 111.801C116.378 112.603 115.866 113.332 115.063 113.477C114.77 113.55 114.478 113.55 114.186 113.623C114.113 113.623 114.113 113.623 114.04 113.623ZM57.0436 111.947C56.6782 111.947 56.2398 111.801 56.0206 111.51C55.8744 111.364 55.6552 111.146 55.5091 110.927C54.9245 110.344 54.9976 109.397 55.5822 108.887C56.1667 108.377 57.1167 108.377 57.6282 108.96C57.7743 109.105 57.9205 109.324 58.1397 109.47C58.7242 110.053 58.6512 111 58.0666 111.51C57.7743 111.801 57.409 111.947 57.0436 111.947ZM109.363 111.947C109.071 111.947 108.705 111.874 108.486 111.656C108.267 111.51 108.048 111.364 107.901 111.146C107.317 110.636 107.244 109.688 107.755 109.105C108.267 108.522 109.217 108.45 109.801 108.96C109.947 109.105 110.167 109.251 110.313 109.397C110.97 109.907 111.044 110.781 110.532 111.437C110.24 111.729 109.801 111.947 109.363 111.947ZM81.8149 111.729C81.3765 111.729 81.0111 111.583 80.7188 111.218C80.2073 110.636 80.2804 109.688 80.865 109.178C81.0842 109.032 81.2303 108.887 81.3765 108.741C81.9611 108.231 82.911 108.304 83.4225 108.887C83.934 109.47 83.8609 110.417 83.2763 110.927C83.0571 111.073 82.911 111.218 82.6918 111.437C82.4726 111.656 82.1803 111.729 81.8149 111.729ZM119.447 111.51C118.935 111.51 118.497 111.291 118.205 110.854C117.766 110.198 117.985 109.251 118.643 108.814C118.862 108.668 119.008 108.595 119.228 108.45C119.885 108.012 120.835 108.158 121.274 108.814C121.712 109.47 121.566 110.417 120.908 110.854C120.689 111 120.47 111.146 120.251 111.291C119.958 111.437 119.666 111.51 119.447 111.51ZM105.125 107.939C104.759 107.939 104.394 107.794 104.102 107.502C103.956 107.357 103.736 107.211 103.59 106.992C103.006 106.482 102.933 105.535 103.517 104.952C104.029 104.369 104.979 104.296 105.563 104.879C105.782 105.025 105.929 105.243 106.148 105.389C106.732 105.972 106.732 106.846 106.221 107.429C105.855 107.794 105.49 107.939 105.125 107.939ZM124.05 107.939C123.612 107.939 123.247 107.794 122.954 107.429C122.443 106.846 122.516 105.899 123.1 105.389C123.247 105.243 123.466 105.098 123.612 104.952C124.197 104.442 125.146 104.515 125.658 105.098C126.169 105.681 126.096 106.628 125.512 107.138C125.293 107.284 125.146 107.429 124.927 107.648C124.781 107.867 124.416 107.939 124.05 107.939ZM86.0531 107.794C85.6877 107.794 85.3224 107.648 85.0301 107.357C84.4455 106.774 84.4455 105.899 85.0301 105.316L85.5416 104.806C86.1261 104.223 87.003 104.223 87.5876 104.733C88.1721 105.316 88.1721 106.191 87.6606 106.774L87.1491 107.284C86.8569 107.648 86.4915 107.794 86.0531 107.794ZM53.3169 107.502C52.8785 107.502 52.4401 107.284 52.1478 106.919C52.0016 106.701 51.8555 106.555 51.7094 106.336C51.1979 105.681 51.344 104.806 52.0016 104.296C52.6593 103.786 53.5362 103.932 54.0477 104.588L54.4861 105.171C54.9976 105.826 54.8514 106.701 54.1938 107.211C53.9015 107.357 53.6092 107.502 53.3169 107.502ZM100.667 104.223C100.375 104.223 100.083 104.15 99.7906 103.932C99.5713 103.786 99.4252 103.64 99.206 103.495C98.5483 103.057 98.4022 102.11 98.9137 101.454C99.3521 100.799 100.302 100.653 100.96 101.163C101.179 101.309 101.325 101.454 101.544 101.6C102.202 102.11 102.348 102.985 101.837 103.64C101.544 104.005 101.106 104.223 100.667 104.223ZM128.435 104.078C128.069 104.078 127.631 103.932 127.339 103.64C126.754 103.057 126.827 102.11 127.412 101.6L127.923 101.09C128.508 100.507 129.458 100.58 129.969 101.163C130.554 101.746 130.481 102.693 129.896 103.203L129.385 103.713C129.165 103.932 128.8 104.078 128.435 104.078ZM90.072 103.495C89.7067 103.495 89.3413 103.349 89.049 103.13C88.4644 102.547 88.3914 101.673 88.9759 101.09C89.1221 100.871 89.3413 100.726 89.4874 100.507C90.072 99.9242 90.9489 99.9242 91.5334 100.507C92.118 101.09 92.118 101.964 91.5334 102.547C91.3873 102.693 91.2412 102.912 91.0219 103.057C90.8027 103.349 90.4374 103.495 90.072 103.495ZM49.9556 102.693C49.4441 102.693 49.0057 102.475 48.7134 102.037L48.275 101.454C47.8366 100.799 48.0558 99.8513 48.7134 99.4141C49.3711 98.9769 50.321 99.1955 50.7594 99.8513L51.1248 100.434C51.5632 101.09 51.4171 102.037 50.6864 102.475C50.5402 102.62 50.2479 102.693 49.9556 102.693ZM95.6985 101.163C95.5524 101.163 95.3332 101.163 95.187 101.09C94.9678 101.017 94.8217 101.017 94.6755 100.944C93.8717 100.799 93.3602 99.997 93.5795 99.1955C93.7987 98.394 94.5294 97.8839 95.3332 98.1025C95.6255 98.1754 95.9178 98.2482 96.21 98.394C96.9408 98.6854 97.3792 99.487 97.0869 100.289C96.7946 100.799 96.2831 101.163 95.6985 101.163Z" fill="#A0AEC0"/>
<path d="M90.4345 36.1665C103.807 36.1665 114.621 46.9506 114.621 60.2851C114.621 70.9236 99.2761 91.9819 92.992 100.143C91.6767 101.892 89.0461 101.892 87.7308 100.143C81.4466 91.9819 66.1016 70.9236 66.1016 60.2851C66.2477 46.9506 77.0623 36.1665 90.4345 36.1665Z" fill="#CBD5E0"/>
<path d="M90.4396 69.7576C95.7263 69.7576 100.012 65.484 100.012 60.2122C100.012 54.9404 95.7263 50.6667 90.4396 50.6667C85.1529 50.6667 80.8672 54.9404 80.8672 60.2122C80.8672 65.484 85.1529 69.7576 90.4396 69.7576Z" fill="white"/>
</g>
<defs>
<filter id="filter0_d_1800_13781" x="0.304688" y="15.6782" width="163.828" height="158.683" filterUnits="userSpaceOnUse" color-interpolation-filters="sRGB">
<feFlood flood-opacity="0" result="BackgroundImageFix"/>
<feColorMatrix in="SourceAlpha" type="matrix" values="0 0 0 0 0 0 0 0 0 0 0 0 0 0 0 0 0 0 127 0" result="hardAlpha"/>
<feOffset dy="10"/>
<feGaussianBlur stdDeviation="15"/>
<feComposite in2="hardAlpha" operator="out"/>
<feColorMatrix type="matrix" values="0 0 0 0 0.631373 0 0 0 0 0.168627 0 0 0 0 0.580392 0 0 0 0.05 0"/>
<feBlend mode="normal" in2="BackgroundImageFix" result="effect1_dropShadow_1800_13781"/>
<feBlend mode="normal" in="SourceGraphic" in2="effect1_dropShadow_1800_13781" result="shape"/>
</filter>
<filter id="filter1_d_1800_13781" x="14.3359" y="63.8584" width="152.039" height="110.308" filterUnits="userSpaceOnUse" color-interpolation-filters="sRGB">
<feFlood flood-opacity="0" result="BackgroundImageFix"/>
<feColorMatrix in="SourceAlpha" type="matrix" values="0 0 0 0 0 0 0 0 0 0 0 0 0 0 0 0 0 0 127 0" result="hardAlpha"/>
<feOffset dy="11"/>
<feGaussianBlur stdDeviation="11"/>
<feColorMatrix type="matrix" values="0 0 0 0 0.443137 0 0 0 0 0.501961 0 0 0 0 0.588235 0 0 0 0.1 0"/>
<feBlend mode="normal" in2="BackgroundImageFix" result="effect1_dropShadow_1800_13781"/>
<feBlend mode="normal" in="SourceGraphic" in2="effect1_dropShadow_1800_13781" result="shape"/>
</filter>
<linearGradient id="paint0_linear_1800_13781" x1="90.3194" y1="73.3246" x2="90.3194" y2="141.881" gradientUnits="userSpaceOnUse">
<stop stop-color="#FDFEFF"/>
<stop offset="0.9964" stop-color="white"/>
</linearGradient>
<clipPath id="clip0_1800_13781">
<rect width="153" height="139" fill="white" transform="translate(13.4844 35.6533)"/>
</clipPath>
</defs>
</svg>
