<svg width="17" height="15" viewBox="0 0 17 15" fill="none" xmlns="http://www.w3.org/2000/svg">
<path fill-rule="evenodd" clip-rule="evenodd" d="M6.75803 1.86005C7.52264 0.500751 9.47973 0.50075 10.2443 1.86005L15.8246 11.7806C16.5746 13.1138 15.6111 14.7611 14.0815 14.7611H2.92088C1.39123 14.7611 0.4278 13.1138 1.17773 11.7806L6.75803 1.86005ZM9.5011 11.7612C9.5011 12.3135 9.05338 12.7612 8.5011 12.7612C7.94881 12.7612 7.5011 12.3135 7.5011 11.7612C7.5011 11.2089 7.94881 10.7612 8.5011 10.7612C9.05338 10.7612 9.5011 11.2089 9.5011 11.7612ZM8.5011 3.76123C7.94881 3.76123 7.5011 4.20895 7.5011 4.76123V7.76123C7.5011 8.31352 7.94881 8.76123 8.5011 8.76123C9.05338 8.76123 9.5011 8.31352 9.5011 7.76123V4.76123C9.5011 4.20895 9.05338 3.76123 8.5011 3.76123Z" fill="#718096"/>
</svg>
