<svg width="19" height="19" viewBox="0 0 19 19" fill="none" xmlns="http://www.w3.org/2000/svg">
<path fill-rule="evenodd" clip-rule="evenodd" d="M9.80646 0.608643C4.85905 0.608643 0.84375 4.62394 0.84375 9.57135C0.84375 14.5188 4.85905 18.5341 9.80646 18.5341C14.7539 18.5341 18.7692 14.5188 18.7692 9.57135C18.7692 4.62394 14.7539 0.608643 9.80646 0.608643ZM11.0707 15.0296V15.5495C11.0707 16.2037 10.533 16.7415 9.87869 16.7415H9.86973C9.21545 16.7415 8.67768 16.2037 8.67768 15.5495V15.0117C7.48564 14.7608 6.42804 14.1065 5.97991 13.0041C5.77377 12.5111 6.15916 11.9644 6.69693 11.9644H6.91203C7.24365 11.9644 7.51253 12.1885 7.63801 12.5021C7.89793 13.1744 8.57909 13.6404 9.88765 13.6404C11.6443 13.6404 12.0387 12.7621 12.0387 12.2153C12.0387 11.4714 11.6443 10.7723 9.64566 10.2973C7.4229 9.75956 5.89924 8.84536 5.89924 7.00801C5.89924 5.46642 7.14506 4.4626 8.68665 4.13098V3.59321C8.68665 2.93894 9.22441 2.40117 9.87869 2.40117H9.88765C10.5419 2.40117 11.0797 2.93894 11.0797 3.59321V4.1489C12.3165 4.45363 13.0963 5.22443 13.4369 6.17447C13.6161 6.66742 13.2397 7.18726 12.7109 7.18726H12.4779C12.1463 7.18726 11.8774 6.95423 11.7877 6.63157C11.5816 5.95041 11.017 5.51123 9.88765 5.51123C8.54324 5.51123 7.7366 6.1207 7.7366 6.98112C7.7366 7.73399 8.31918 8.22694 10.1296 8.693C11.9401 9.15906 13.8761 9.93881 13.8761 12.1974C13.8581 13.8376 12.6302 14.7339 11.0707 15.0296Z" fill="#A0AEC0"/>
</svg>
