<svg width="19" height="23" viewBox="0 0 19 23" fill="none" xmlns="http://www.w3.org/2000/svg">
<path fill-rule="evenodd" clip-rule="evenodd" d="M5.51734 3.49356C5.51734 2.6819 6.14399 2.02392 6.917 2.02392H11.5233C12.2963 2.02392 12.9229 2.6819 12.9229 3.49356V9.10772C12.9229 9.91938 12.2963 10.5774 11.5233 10.5774H6.917C6.14399 10.5774 5.51734 9.91938 5.51734 9.10772V3.49356ZM6.917 0.46875C5.32599 0.46875 4.03623 1.823 4.03623 3.49356V9.10772C4.03623 10.7783 5.32599 12.1325 6.917 12.1325H11.5233C13.1143 12.1325 14.404 10.7783 14.404 9.10772V3.49356C14.404 1.823 13.1143 0.46875 11.5233 0.46875H6.917ZM2.59415 11.3562C2.94462 11.376 3.23033 11.6517 3.28487 12.0085L3.66412 13.9995C3.99077 13.8013 4.36995 13.6878 4.77438 13.6878H13.6611C14.0663 13.6878 14.4462 13.8017 14.7733 14.0007L15.1581 11.9803C15.2285 11.6109 15.5373 11.3554 15.8827 11.355L15.8854 11.355H17.3665C17.7755 11.355 18.107 11.7032 18.107 12.1326C18.107 12.5621 17.7755 12.9102 17.3665 12.9102H16.4914L15.8809 16.1153C15.8336 17.3597 14.8578 18.3533 13.6611 18.3533H9.95869V22.2406H13.6635C14.0725 22.2406 14.404 22.5888 14.404 23.0182C14.404 23.4477 14.0725 23.7958 13.6635 23.7958H9.25289C9.24137 23.7964 9.22978 23.7966 9.21813 23.7966C9.20648 23.7966 9.1949 23.7964 9.18338 23.7958H4.77679C4.36779 23.7958 4.03623 23.4477 4.03623 23.0182C4.03623 22.5888 4.36779 22.2406 4.77679 22.2406H8.47757V18.3533H4.77438C3.57312 18.3533 2.59453 17.3523 2.55401 16.1013L1.94619 12.9102H1.07259C0.66359 12.9102 0.332031 12.5621 0.332031 12.1326C0.332031 11.7032 0.66359 11.355 1.07259 11.355H2.5537C2.56724 11.355 2.58073 11.3554 2.59415 11.3562ZM4.03418 15.996C4.04655 15.5779 4.37321 15.243 4.77438 15.243H13.6611C14.0701 15.243 14.4016 15.5911 14.4016 16.0206C14.4016 16.45 14.0701 16.7981 13.6611 16.7981H4.77438C4.37353 16.7981 4.04706 16.4637 4.03421 16.0461C4.03472 16.0295 4.03471 16.0128 4.03418 15.996Z" fill="#842379"/>
</svg>
