<svg width="134" height="134" viewBox="0 0 134 134" fill="none" xmlns="http://www.w3.org/2000/svg">
<circle cx="67.0039" cy="66.5417" r="65.5" stroke="#4DC41F" stroke-width="2"/>
<path fill-rule="evenodd" clip-rule="evenodd" d="M34.0941 71.3847C32.5734 69.864 32.5734 67.3983 34.0941 65.8776C34.9074 65.0643 35.9909 64.6859 37.0555 64.7425C36.0834 64.7606 35.1168 65.1406 34.3749 65.8824C32.8542 67.4031 32.8542 69.8688 34.3749 71.3895L53.8457 90.8603C54.5531 91.5677 55.4651 91.9461 56.3913 91.9953C55.3705 92.0143 54.3437 91.6343 53.5648 90.8554L34.0941 71.3847ZM99.3617 41.3776C98.2971 41.3211 97.2137 41.6995 96.4004 42.5127L56.4564 82.4567L56.5993 82.5995L96.6813 42.5175C97.4231 41.7757 98.3897 41.3958 99.3617 41.3776ZM103.178 49.2907C105.401 47.0681 105.401 43.4645 103.178 41.2418C100.956 39.0192 97.3522 39.0192 95.1295 41.2418L56.3184 80.0529L40.8721 64.6067C38.6495 62.384 35.0459 62.384 32.8232 64.6067C30.6006 66.8293 30.6006 70.4329 32.8232 72.6556L52.294 92.1263C54.5166 94.349 58.1202 94.349 60.3429 92.1263L103.178 49.2907Z" fill="#4DC41F"/>
</svg>
