<svg width="15" height="19" viewBox="0 0 15 19" fill="none" xmlns="http://www.w3.org/2000/svg">
<path fill-rule="evenodd" clip-rule="evenodd" d="M4.75405 0.801758C4.1052 0.801758 3.57921 1.32775 3.57921 1.9766C3.57921 2.62545 4.1052 3.15144 4.75405 3.15144H9.45341C10.1023 3.15144 10.6283 2.62545 10.6283 1.9766C10.6283 1.32775 10.1023 0.801758 9.45341 0.801758H4.75405ZM7.10373 18.4244C10.9968 18.4244 14.1528 15.2684 14.1528 11.3753C14.1528 7.48224 10.9968 4.32628 7.10373 4.32628C3.21065 4.32628 0.0546875 7.48224 0.0546875 11.3753C0.0546875 15.2684 3.21065 18.4244 7.10373 18.4244ZM10.7219 7.93096C11.0064 7.54777 10.9671 7.01399 10.6296 6.67652L5.8933 10.9135C5.43957 11.3194 5.42001 12.0232 5.85048 12.4536C6.30824 12.9114 7.06578 12.8557 7.45167 12.3359L10.7219 7.93096Z" fill="#A0AEC0"/>
</svg>
