<svg width="175" height="123" viewBox="0 0 175 123" fill="none" xmlns="http://www.w3.org/2000/svg">
<g clip-path="url(#clip0_1956_14470)">
<path d="M55.457 7.81245C56.9974 7.30412 57.8402 5.62411 57.3395 4.06007C56.8388 2.49605 55.1843 1.64024 53.644 2.14859C52.1038 2.65692 51.261 4.33693 51.7616 5.90097C52.2622 7.46499 53.9167 8.3208 55.457 7.81245Z" fill="#EAEEF9"/>
<path d="M121.763 110.65H15.8359L35.1914 20.2417H141.236L121.763 110.65Z" fill="white"/>
<path d="M121.763 110.65H15.8359L35.1914 20.2417H141.236L121.763 110.65Z" fill="#D5DAE8"/>
<path d="M60.6505 110.65H38.7143C34.7259 110.65 31.4413 107.195 31.6759 103.145L35.1951 20.2417H40.4738L60.6505 110.65Z" fill="url(#paint0_linear_1956_14470)"/>
<path d="M164.467 110.65H58.5392L40.5913 41.2058L40.474 40.7294L35.1953 20.2417H141.24L145.815 37.9898L146.519 40.7294L146.635 41.2058L164.467 110.65Z" fill="white"/>
<path d="M146.519 40.7294H40.474L35.1953 20.2417H141.24L145.815 37.9898L146.519 40.7294Z" fill="#EFF3FB"/>
<path opacity="0.3" d="M63.1132 34.8929C65.1863 34.8929 66.867 33.1864 66.867 31.0812C66.867 28.9761 65.1863 27.2695 63.1132 27.2695C61.04 27.2695 59.3594 28.9761 59.3594 31.0812C59.3594 33.1864 61.04 34.8929 63.1132 34.8929Z" fill="#ADB6C8"/>
<path opacity="0.3" d="M125.051 34.8929C127.124 34.8929 128.804 33.1864 128.804 31.0812C128.804 28.9761 127.124 27.2695 125.051 27.2695C122.978 27.2695 121.297 28.9761 121.297 31.0812C121.297 33.1864 122.978 34.8929 125.051 34.8929Z" fill="#ADB6C8"/>
<path d="M62.1722 32.6296C61.4684 32.6296 60.8818 32.0339 60.8818 31.3193C60.8818 30.6046 61.4684 30.009 62.1722 30.009C64.7529 30.009 67.4509 26.3165 67.4509 20.7181C67.4509 20.599 67.4509 20.3608 67.4509 20.2417C67.3337 14.7624 64.6356 11.4272 62.1722 11.4272C59.8261 11.4272 57.2453 14.6432 56.8934 19.646H54.1953C54.5473 13.452 57.9491 8.80664 62.0549 8.80664C66.3952 8.80664 69.797 13.9286 70.0317 20.4799C70.0317 20.599 70.0317 20.7181 70.0317 20.8372C70.149 27.3885 66.6298 32.6296 62.1722 32.6296Z" fill="#ADB6C8"/>
<path d="M123.758 32.6296C123.054 32.6296 122.468 32.0339 122.468 31.3193C122.468 30.6046 123.054 30.009 123.758 30.009C126.339 30.009 129.037 26.3165 129.037 20.7181C129.037 20.599 129.037 20.3608 129.037 20.2417C128.919 14.7624 126.222 11.4272 123.758 11.4272C121.412 11.4272 118.831 14.6432 118.479 19.646H115.781C116.133 13.452 119.535 8.80664 123.641 8.80664C127.981 8.80664 131.382 13.9286 131.617 20.4799C131.617 20.599 131.617 20.7181 131.617 20.8372C131.735 27.3885 128.216 32.6296 123.758 32.6296Z" fill="#ADB6C8"/>
<path d="M2.34375 110.531H173.024" stroke="#D5DAE8" stroke-width="2" stroke-miterlimit="10" stroke-linecap="round" stroke-linejoin="round"/>
<path opacity="0.3" d="M125.635 67.5302C124.93 67.5302 124.461 66.9347 124.461 66.3391C124.461 65.6244 124.93 65.1479 125.635 65.1479H129.27C129.975 65.1479 130.443 65.7435 130.443 66.3391C130.443 67.0538 129.857 67.5302 129.27 67.5302H125.635Z" fill="#D5DAE8"/>
<path opacity="0.3" d="M75.664 101.12C75.1947 101.12 74.7255 100.763 74.4909 100.287L72.614 93.2588H63.3468C62.643 93.2588 62.1738 92.6632 62.1738 92.0676C62.1738 91.353 62.7603 90.8765 63.3468 90.8765H71.9102L68.9776 80.3945H60.0623C59.3585 80.3945 58.8892 79.7988 58.8892 79.2033C58.8892 78.4886 59.3585 78.0121 60.0623 78.0121H68.2737L65.3411 67.53H56.895C56.1912 67.53 55.722 66.9345 55.722 66.3389C55.722 65.6242 56.1912 65.1477 56.895 65.1477H64.7546L61.8219 54.6657H53.7277C53.0239 54.6657 52.5547 54.0701 52.5547 53.4746C52.5547 52.7598 53.0239 52.2834 53.7277 52.2834H61.118L59.945 47.9953C59.8276 47.3998 60.1796 46.685 60.7661 46.5659C60.8835 46.5659 61.0008 46.5659 61.118 46.5659C61.5873 46.5659 62.0565 46.9232 62.2911 47.3998L63.6988 52.2834H73.0832C73.787 52.2834 74.2563 52.7598 74.2563 53.4746C74.2563 54.1893 73.787 54.6657 73.0832 54.6657H64.4026L67.3352 65.1477H82.1158L77.4235 47.9953C77.3063 47.3998 77.6582 46.685 78.2447 46.5659C78.362 46.5659 78.4793 46.5659 78.5967 46.5659C79.0658 46.5659 79.5351 46.9232 79.7697 47.3998L81.1773 52.2834H86.2216C86.9254 52.2834 87.3946 52.7598 87.3946 53.4746C87.3946 54.1893 86.8081 54.6657 86.2216 54.6657H81.8813L84.8139 65.1477H94.7849C95.4887 65.1477 95.958 65.7434 95.958 66.3389C95.958 67.0536 95.4887 67.53 94.7849 67.53H85.5177L88.4504 78.0121H103.348L96.8964 54.6657H93.7292C93.0252 54.6657 92.5561 54.0701 92.5561 53.4746C92.5561 52.7598 93.1426 52.2834 93.7292 52.2834H96.1925L95.0195 47.9953C94.9022 47.638 95.0195 47.3998 95.1368 47.0424C95.254 46.8041 95.4887 46.5659 95.8407 46.4468C95.9579 46.4468 96.0752 46.4468 96.1925 46.4468C96.6618 46.4468 97.131 46.8041 97.3657 47.2807L98.7733 52.1643H101.237C101.94 52.1643 102.41 52.6407 102.41 53.3555C102.41 54.0701 101.94 54.5466 101.237 54.5466H99.4772L102.41 65.0286H117.308L114.375 54.5466H106.75C106.046 54.5466 105.577 53.951 105.577 53.3555C105.577 52.6407 106.164 52.1643 106.75 52.1643H113.319L112.146 47.8762C112.029 47.2807 112.381 46.5659 112.967 46.4468C113.085 46.4468 113.202 46.4468 113.319 46.4468C113.788 46.4468 114.258 46.8041 114.492 47.2807L115.9 52.1643H130.797L129.625 47.8762C129.507 47.2807 129.859 46.5659 130.446 46.4468C130.564 46.4468 130.68 46.4468 130.797 46.4468C131.267 46.4468 131.737 46.8041 131.971 47.2807L133.379 52.1643H142.529C143.232 52.1643 143.702 52.6407 143.702 53.3555C143.702 54.0701 143.232 54.5466 142.529 54.5466H133.73L136.664 65.0286H145.461C146.165 65.0286 146.634 65.6242 146.634 66.2198C146.634 66.9345 146.165 67.4109 145.461 67.4109H137.367L140.3 77.893H148.745C149.45 77.893 149.919 78.4886 149.919 79.0842C149.919 79.7988 149.45 80.2754 148.745 80.2754H141.004L143.936 90.7574H151.913C152.617 90.7574 153.085 91.353 153.085 91.9485C153.085 92.6633 152.5 93.1397 151.913 93.1397H144.522L146.282 99.4528C146.4 100.048 146.047 100.763 145.461 100.882C145.344 100.882 145.227 100.882 145.109 100.882C144.64 100.882 144.17 100.525 143.936 100.048L142.059 93.1397H127.162L128.921 99.3337C129.039 99.691 128.921 99.9292 128.804 100.287C128.687 100.525 128.452 100.763 128.1 100.882C127.982 100.882 127.865 100.882 127.747 100.882C127.279 100.882 126.809 100.525 126.575 100.048L124.698 93.2588H109.8L111.56 99.4528C111.677 100.048 111.325 100.763 110.739 100.882C110.621 100.882 110.504 100.882 110.387 100.882C109.917 100.882 109.448 100.525 109.214 100.048L107.337 93.2588H92.4387L94.1984 99.4528C94.3157 100.048 93.9637 100.763 93.3772 100.882C93.2599 100.882 93.1426 100.882 93.0252 100.882C92.5561 100.882 92.0869 100.525 91.8522 100.048L89.9754 93.2588H75.0775L76.837 99.5719C76.9543 99.9292 76.837 100.167 76.7197 100.525C76.6025 100.763 76.3678 101.001 76.0159 101.12C75.8987 101.12 75.7813 101.12 75.664 101.12ZM109.096 90.8765H141.355L138.422 80.3945H123.525L124.581 84.206C124.698 84.5635 124.581 84.8017 124.463 85.159C124.346 85.3972 124.111 85.6354 123.759 85.7546C123.642 85.7546 123.525 85.7546 123.408 85.7546C122.938 85.7546 122.469 85.3972 122.234 84.9208L121.061 80.5136H116.604C115.9 80.5136 115.431 79.9179 115.431 79.3224C115.431 78.6077 115.9 78.1313 116.604 78.1313H120.358L117.425 67.6491H102.644L105.577 78.1313H109.214C109.917 78.1313 110.387 78.7268 110.387 79.3224C110.387 80.037 109.917 80.5136 109.214 80.5136H106.164L109.096 90.8765ZM91.7349 90.8765H106.633L103.7 80.3945H88.8022L91.7349 90.8765ZM74.3737 90.8765H89.2714L86.3388 80.3945H81.9985C81.2946 80.3945 80.8255 79.7988 80.8255 79.2033C80.8255 78.4886 81.412 78.0121 81.9985 78.0121H85.7523L82.8196 67.53H67.9217L70.8544 78.0121H74.7255C75.4294 78.0121 75.8987 78.6077 75.8987 79.2033C75.8987 79.9179 75.312 80.3945 74.7255 80.3945H71.5582L74.3737 90.8765ZM122.938 78.0121H137.836L131.384 54.6657H116.369L122.938 78.0121Z" fill="#D5DAE8"/>
<path d="M89.3934 65.8569C84.5188 65.8569 80.4242 62.7009 78.8644 58.164C78.4744 57.1777 79.0592 56.1915 80.0341 55.7969C81.0092 55.4024 81.9841 55.9941 82.3739 56.9805C83.3488 59.9393 86.2737 62.1091 89.3934 62.1091C92.5131 62.1091 95.4377 60.1365 96.4126 56.9805C96.8025 55.9941 97.7774 55.4024 98.7524 55.7969C99.7273 56.1915 100.312 57.1777 99.9222 58.164C98.3624 62.8981 94.2678 65.8569 89.3934 65.8569Z" fill="#ADB6C8"/>
<path d="M118.839 65.8569C113.964 65.8569 109.87 62.7009 108.31 58.164C107.92 57.1777 108.505 56.1915 109.48 55.7969C110.454 55.4024 111.429 55.9941 111.819 56.9805C112.794 59.9393 115.719 62.1091 118.839 62.1091C121.958 62.1091 124.883 60.1365 125.858 56.9805C126.249 55.9941 127.223 55.4024 128.197 55.7969C129.173 56.1915 129.757 57.1777 129.368 58.164C127.808 62.8981 123.713 65.8569 118.839 65.8569Z" fill="#ADB6C8"/>
<path d="M109.891 90.0088C112.368 90.0088 114.375 87.9776 114.375 85.4719C114.375 82.9663 112.368 80.9351 109.891 80.9351C107.414 80.9351 105.406 82.9663 105.406 85.4719C105.406 87.9776 107.414 90.0088 109.891 90.0088Z" fill="#ADB6C8"/>
<path d="M16.6242 8.17421V2.32617H38.9584V8.17421L23.7186 26.7816H39.2213V32.6297H15.8359V26.7816L31.0757 8.17421H16.6242Z" fill="#ADB6C8"/>
<path d="M45.463 45.0819V41.3604H59.9146V45.0819L50.1925 57.0438H60.1773V60.7653H44.9375V57.0438L54.6594 45.0819H45.463Z" fill="#ADB6C8"/>
</g>
<defs>
<linearGradient id="paint0_linear_1956_14470" x1="31.6544" y1="65.432" x2="60.6938" y2="65.432" gradientUnits="userSpaceOnUse">
<stop stop-color="#D5DAE8"/>
<stop offset="1" stop-color="#9AA3BA"/>
</linearGradient>
<clipPath id="clip0_1956_14470">
<rect width="174" height="122" fill="white" transform="translate(0.5 0.226562)"/>
</clipPath>
</defs>
</svg>
