<svg width="115" height="9" viewBox="0 0 115 9" fill="none" xmlns="http://www.w3.org/2000/svg">
<path d="M4.07931 8.2084C6.25542 8.2084 8.03215 6.43167 8.03215 4.25556C8.03215 2.07945 6.25542 0.302719 4.07931 0.302719C1.9032 0.302719 0.126471 2.07945 0.126471 4.25556C0.126471 6.43167 1.9032 8.2084 4.07931 8.2084ZM12.9189 8.2084C15.095 8.2084 16.8718 6.43167 16.8718 4.25556C16.8718 2.07945 15.095 0.302719 12.9189 0.302719C10.7428 0.302719 8.96609 2.07945 8.96609 4.25556C8.96609 6.43167 10.7428 8.2084 12.9189 8.2084ZM21.7585 8.2084C23.9347 8.2084 25.7114 6.43167 25.7114 4.25556C25.7114 2.07945 23.9347 0.302719 21.7585 0.302719C19.5824 0.302719 17.8057 2.07945 17.8057 4.25556C17.8057 6.43167 19.5824 8.2084 21.7585 8.2084ZM30.5982 8.2084C32.7743 8.2084 34.551 6.43167 34.551 4.25556C34.551 2.07945 32.7743 0.302719 30.5982 0.302719C28.422 0.302719 26.6453 2.07945 26.6453 4.25556C26.6453 6.43167 28.422 8.2084 30.5982 8.2084ZM44.0911 8.2084C46.2672 8.2084 48.0439 6.43167 48.0439 4.25556C48.0439 2.07945 46.2672 0.302719 44.0911 0.302719C41.915 0.302719 40.1382 2.07945 40.1382 4.25556C40.1382 6.43167 41.915 8.2084 44.0911 8.2084ZM52.9307 8.2084C55.1068 8.2084 56.8835 6.43167 56.8835 4.25556C56.8835 2.07945 55.1068 0.302719 52.9307 0.302719C50.7546 0.302719 48.9778 2.07945 48.9778 4.25556C48.9778 6.43167 50.7546 8.2084 52.9307 8.2084ZM61.7703 8.2084C63.9464 8.2084 65.7231 6.43167 65.7231 4.25556C65.7231 2.07945 63.9464 0.302719 61.7703 0.302719C59.5942 0.302719 57.8175 2.07945 57.8175 4.25556C57.8175 6.43167 59.5942 8.2084 61.7703 8.2084ZM70.6099 8.2084C72.786 8.2084 74.5627 6.43167 74.5627 4.25556C74.5627 2.07945 72.786 0.302719 70.6099 0.302719C68.4338 0.302719 66.6571 2.07945 66.6571 4.25556C66.6571 6.43167 68.4338 8.2084 70.6099 8.2084ZM84.1028 8.2084C86.2789 8.2084 88.0556 6.43167 88.0556 4.25556C88.0556 2.07945 86.2789 0.302719 84.1028 0.302719C81.9267 0.302719 80.15 2.07945 80.15 4.25556C80.15 6.43167 81.9267 8.2084 84.1028 8.2084ZM92.9424 8.2084C95.1185 8.2084 96.8953 6.43167 96.8953 4.25556C96.8953 2.07945 95.1185 0.302719 92.9424 0.302719C90.7663 0.302719 88.9896 2.07945 88.9896 4.25556C88.9896 6.43167 90.7663 8.2084 92.9424 8.2084ZM101.782 8.2084C103.958 8.2084 105.735 6.43167 105.735 4.25556C105.735 2.07945 103.958 0.302719 101.782 0.302719C99.6059 0.302719 97.8292 2.07945 97.8292 4.25556C97.8292 6.43167 99.6059 8.2084 101.782 8.2084ZM110.622 8.2084C112.798 8.2084 114.574 6.43167 114.574 4.25556C114.574 2.07945 112.798 0.302719 110.622 0.302719C108.446 0.302719 106.669 2.07945 106.669 4.25556C106.669 6.43167 108.446 8.2084 110.622 8.2084Z" fill="#1A202C"/>
</svg>
