<svg width="20" height="21" viewBox="0 0 20 21" fill="none" xmlns="http://www.w3.org/2000/svg">
<path fill-rule="evenodd" clip-rule="evenodd" d="M8.25413 3.86005C9.01874 2.50075 10.9758 2.50075 11.7404 3.86005L17.3207 13.7806C18.0707 15.1138 17.1072 16.7611 15.5776 16.7611H4.41697C2.88732 16.7611 1.92389 15.1138 2.67382 13.7806L8.25413 3.86005ZM10.9972 13.7612C10.9972 14.3135 10.5495 14.7612 9.99719 14.7612C9.44491 14.7612 8.99719 14.3135 8.99719 13.7612C8.99719 13.2089 9.44491 12.7612 9.99719 12.7612C10.5495 12.7612 10.9972 13.2089 10.9972 13.7612ZM9.99719 5.76123C9.44491 5.76123 8.99719 6.20895 8.99719 6.76123V9.76123C8.99719 10.3135 9.44491 10.7612 9.99719 10.7612C10.5495 10.7612 10.9972 10.3135 10.9972 9.76123V6.76123C10.9972 6.20895 10.5495 5.76123 9.99719 5.76123Z" fill="#718096"/>
</svg>
