<svg width="206" height="168" viewBox="0 0 206 168" fill="none" xmlns="http://www.w3.org/2000/svg">
<path d="M103.388 147.236C143.724 147.236 176.424 114.36 176.424 73.6632C176.424 32.9666 143.724 0.0908203 103.388 0.0908203C63.0523 0.0908203 30.3516 32.9666 30.3516 73.6632C30.3516 114.36 63.0523 147.236 103.388 147.236Z" fill="#EAEEF9"/>
<path d="M184.777 43.3942C188.04 43.3942 190.684 40.7357 190.684 37.4562C190.684 34.1768 188.04 31.5183 184.777 31.5183C181.516 31.5183 178.871 34.1768 178.871 37.4562C178.871 40.7357 181.516 43.3942 184.777 43.3942Z" fill="#EAEEF9"/>
<path d="M193.424 20.0769C195.653 20.0769 197.458 18.2613 197.458 16.0217C197.458 13.7821 195.653 11.9666 193.424 11.9666C191.197 11.9666 189.391 13.7821 189.391 16.0217C189.391 18.2613 191.197 20.0769 193.424 20.0769Z" fill="#EAEEF9"/>
<path d="M25.4515 47.5942C27.6792 47.5942 29.4851 45.7787 29.4851 43.5391C29.4851 41.2994 27.6792 39.4839 25.4515 39.4839C23.2239 39.4839 21.418 41.2994 21.418 43.5391C21.418 45.7787 23.2239 47.5942 25.4515 47.5942Z" fill="#EAEEF9"/>
<path d="M32.944 135.794C37.0812 135.794 40.4349 132.423 40.4349 128.263C40.4349 124.104 37.0812 120.732 32.944 120.732C28.8069 120.732 25.4531 124.104 25.4531 128.263C25.4531 132.423 28.8069 135.794 32.944 135.794Z" fill="#EAEEF9"/>
<g filter="url(#filter0_d_2077_15079)">
<path d="M161.468 120.109H45.5988C38.5489 120.109 32.9453 114.475 32.9453 107.388V40.3294C32.9453 33.2418 38.5489 27.6082 45.5988 27.6082H161.468C168.516 27.6082 174.12 33.2418 174.12 40.3294V107.388C174.12 114.475 168.516 120.109 161.468 120.109Z" fill="url(#paint0_linear_2077_15079)"/>
</g>
<path d="M68.736 99.2097H50.2985C48.6716 99.2097 47.4062 97.9376 47.4062 96.3021C47.4062 94.6664 48.6716 93.3944 50.2985 93.3944H68.736C70.363 93.3944 71.6283 94.6664 71.6283 96.3021C71.6283 97.9376 70.363 99.2097 68.736 99.2097Z" fill="#D5DDEA"/>
<path d="M98.5604 99.2097H80.1227C78.4959 99.2097 77.2305 97.9376 77.2305 96.3021C77.2305 94.6664 78.4959 93.3944 80.1227 93.3944H98.5604C100.187 93.3944 101.453 94.6664 101.453 96.3021C101.453 97.9376 100.187 99.2097 98.5604 99.2097Z" fill="#D5DDEA"/>
<path d="M128.385 99.2097H109.947C108.32 99.2097 107.055 97.9376 107.055 96.3021C107.055 94.6664 108.32 93.3944 109.947 93.3944H128.385C130.011 93.3944 131.277 94.6664 131.277 96.3021C131.277 97.9376 130.011 99.2097 128.385 99.2097Z" fill="#D5DDEA"/>
<path d="M158.213 99.2097H139.775C138.148 99.2097 136.883 97.9376 136.883 96.3021C136.883 94.6664 138.148 93.3944 139.775 93.3944H158.213C159.839 93.3944 161.105 94.6664 161.105 96.3021C161.105 97.9376 159.839 99.2097 158.213 99.2097Z" fill="#D5DDEA"/>
<path d="M151.525 64.3176C157.515 64.3176 162.371 59.4357 162.371 53.4138C162.371 47.3917 157.515 42.51 151.525 42.51C145.535 42.51 140.68 47.3917 140.68 53.4138C140.68 59.4357 145.535 64.3176 151.525 64.3176Z" fill="#989FB0"/>
<path d="M137.244 64.3176C143.234 64.3176 148.09 59.4357 148.09 53.4138C148.09 47.3917 143.234 42.51 137.244 42.51C131.254 42.51 126.398 47.3917 126.398 53.4138C126.398 59.4357 131.254 64.3176 137.244 64.3176Z" fill="#D5DDEA"/>
<path d="M70.363 67.7702H50.1177C48.6716 67.7702 47.4062 66.4982 47.4062 65.0443V51.9598C47.4062 50.5059 48.6716 49.2339 50.1177 49.2339H70.1822C71.6283 49.2339 72.8936 50.5059 72.8936 51.9598V65.0443C73.0744 66.4982 71.809 67.7702 70.363 67.7702Z" fill="#D5DDEA"/>
<path d="M139.432 123.823L162.967 86.3747C165.528 82.8609 170.892 82.8609 173.453 86.3747L196.989 123.823C199.469 127.181 196.989 131.944 192.746 131.944H143.754C139.432 131.866 136.95 127.181 139.432 123.823Z" fill="url(#paint1_linear_2077_15079)"/>
<path d="M168.214 95.9619C165.971 95.9619 164.227 97.9439 164.394 100.271L165.64 114.231C165.722 115.61 166.885 116.73 168.214 116.73C169.544 116.73 170.706 115.61 170.789 114.231L172.035 100.271C172.202 97.8577 170.457 95.9619 168.214 95.9619Z" fill="white"/>
<path d="M168.213 119.315C166.552 119.315 165.223 120.694 165.223 122.418C165.223 124.141 166.552 125.52 168.213 125.52C169.874 125.52 171.204 124.141 171.204 122.418C171.204 120.694 169.874 119.315 168.213 119.315Z" fill="white"/>
<defs>
<filter id="filter0_d_2077_15079" x="10.9453" y="16.6082" width="185.176" height="136.5" filterUnits="userSpaceOnUse" color-interpolation-filters="sRGB">
<feFlood flood-opacity="0" result="BackgroundImageFix"/>
<feColorMatrix in="SourceAlpha" type="matrix" values="0 0 0 0 0 0 0 0 0 0 0 0 0 0 0 0 0 0 127 0" result="hardAlpha"/>
<feOffset dy="11"/>
<feGaussianBlur stdDeviation="11"/>
<feColorMatrix type="matrix" values="0 0 0 0 0.397708 0 0 0 0 0.47749 0 0 0 0 0.575 0 0 0 0.27 0"/>
<feBlend mode="normal" in2="BackgroundImageFix" result="effect1_dropShadow_2077_15079"/>
<feBlend mode="normal" in="SourceGraphic" in2="effect1_dropShadow_2077_15079" result="shape"/>
</filter>
<linearGradient id="paint0_linear_2077_15079" x1="103.487" y1="25.4686" x2="103.487" y2="121.106" gradientUnits="userSpaceOnUse">
<stop stop-color="#FDFEFF"/>
<stop offset="0.9964" stop-color="#ECF0F5"/>
</linearGradient>
<linearGradient id="paint1_linear_2077_15079" x1="138.418" y1="109.109" x2="197.987" y2="109.109" gradientUnits="userSpaceOnUse">
<stop stop-color="#B0BACC"/>
<stop offset="1" stop-color="#969EAE"/>
</linearGradient>
</defs>
</svg>
