<svg width="15" height="18" viewBox="0 0 15 18" fill="none" xmlns="http://www.w3.org/2000/svg">
<path d="M7.47917 10.6667C8.85988 10.6667 9.97917 9.54742 9.97917 8.16671C9.97917 6.786 8.85988 5.66671 7.47917 5.66671C6.09846 5.66671 4.97917 6.786 4.97917 8.16671C4.97917 9.54742 6.09846 10.6667 7.47917 10.6667Z" stroke="#718096" stroke-width="1.5" stroke-linecap="round" stroke-linejoin="round"/>
<path d="M12.1933 12.8808L8.6575 16.4167C8.34499 16.7289 7.92132 16.9042 7.47959 16.9042C7.03785 16.9042 6.61418 16.7289 6.30167 16.4167L2.765 12.8808C1.83269 11.9485 1.19778 10.7606 0.940576 9.46739C0.683369 8.17419 0.815411 6.83376 1.32001 5.61561C1.8246 4.39745 2.67908 3.35628 3.7754 2.62376C4.87172 1.89123 6.16064 1.50024 7.47917 1.50024C8.7977 1.50024 10.0866 1.89123 11.1829 2.62376C12.2793 3.35628 13.1337 4.39745 13.6383 5.61561C14.1429 6.83376 14.275 8.17419 14.0178 9.46739C13.7606 10.7606 13.1257 11.9485 12.1933 12.8808Z" stroke="#718096" stroke-width="1.5" stroke-linecap="round" stroke-linejoin="round"/>
</svg>
