<svg width="41" height="29" viewBox="0 0 41 29" fill="none" xmlns="http://www.w3.org/2000/svg">
<rect x="1.22543" y="0.914885" width="39.0648" height="27.0648" rx="3.27334" fill="white" stroke="#CBD5E0" stroke-width="0.93524"/>
<path fill-rule="evenodd" clip-rule="evenodd" d="M20.9722 20.0816C19.5792 21.2461 17.7722 21.949 15.7976 21.949C11.3919 21.949 7.82031 18.4494 7.82031 14.1323C7.82031 9.81531 11.3919 6.31567 15.7976 6.31567C17.7722 6.31567 19.5792 7.01863 20.9722 8.18307C22.3652 7.01863 24.1722 6.31567 26.1467 6.31567C30.5525 6.31567 34.124 9.81531 34.124 14.1323C34.124 18.4494 30.5525 21.949 26.1467 21.949C24.1722 21.949 22.3652 21.2461 20.9722 20.0816Z" fill="#ED0006"/>
<path fill-rule="evenodd" clip-rule="evenodd" d="M20.9688 20.0847C22.6861 18.651 23.7752 16.5163 23.7752 14.1323C23.7752 11.7484 22.6861 9.61368 20.9688 8.17993C22.3613 7.01737 24.1668 6.31567 26.1396 6.31567C30.5453 6.31567 34.1168 9.81531 34.1168 14.1323C34.1168 18.4494 30.5453 21.949 26.1396 21.949C24.1668 21.949 22.3613 21.2473 20.9688 20.0847Z" fill="#F9A000"/>
<path fill-rule="evenodd" clip-rule="evenodd" d="M20.9746 20.0816C22.6897 18.6479 23.7773 16.5146 23.7773 14.1324C23.7773 11.7501 22.6897 9.61683 20.9746 8.18311C19.2594 9.61683 18.1719 11.7501 18.1719 14.1324C18.1719 16.5146 19.2594 18.6479 20.9746 20.0816Z" fill="#FD6020"/>
</svg>
