<svg width="129" height="108" viewBox="0 0 129 108" fill="none" xmlns="http://www.w3.org/2000/svg">
<g clip-path="url(#clip0_3110_16560)">
<path d="M123.349 56.4377C123.349 70.6377 117.549 83.4377 108.249 92.6377C99.1492 101.738 86.5492 107.238 72.6492 107.238C58.8492 107.238 46.2492 101.638 37.0492 92.6377C27.7492 83.4377 21.9492 70.6377 21.9492 56.4377C21.9492 28.3377 44.6492 5.6377 72.6492 5.6377C100.649 5.6377 123.349 28.4377 123.349 56.4377Z" fill="#EAEEF9"/>
<path d="M118.948 23.1377C121.212 23.1377 123.048 21.302 123.048 19.0377C123.048 16.7733 121.212 14.9377 118.948 14.9377C116.683 14.9377 114.848 16.7733 114.848 19.0377C114.848 21.302 116.683 23.1377 118.948 23.1377Z" fill="#EAEEF9"/>
<path d="M124.948 7.13784C126.494 7.13784 127.748 5.88424 127.748 4.33784C127.748 2.79144 126.494 1.53784 124.948 1.53784C123.401 1.53784 122.148 2.79144 122.148 4.33784C122.148 5.88424 123.401 7.13784 124.948 7.13784Z" fill="#EAEEF9"/>
<path d="M23.55 23.0377C25.0964 23.0377 26.35 21.784 26.35 20.2377C26.35 18.6913 25.0964 17.4377 23.55 17.4377C22.0036 17.4377 20.75 18.6913 20.75 20.2377C20.75 21.784 22.0036 23.0377 23.55 23.0377Z" fill="#EAEEF9"/>
<path d="M6.45 77.0377C9.32189 77.0377 11.65 74.7096 11.65 71.8377C11.65 68.9658 9.32189 66.6377 6.45 66.6377C3.57811 66.6377 1.25 68.9658 1.25 71.8377C1.25 74.7096 3.57811 77.0377 6.45 77.0377Z" fill="#EAEEF9"/>
<path d="M108.247 29.8379V92.6379C99.1469 101.738 86.5469 107.238 72.6469 107.238C58.8469 107.238 46.2469 101.638 37.0469 92.6379V29.8379H108.247Z" fill="white"/>
<path d="M90.8492 75.1377H54.4492V79.7377H90.8492V75.1377Z" fill="#D5DAE5"/>
<path d="M90.8492 85.2378H54.4492V89.8378H90.8492V85.2378Z" fill="#D5DAE5"/>
<path d="M81.9477 95.438H63.3477V100.038H81.9477V95.438Z" fill="#D5DAE5"/>
<path d="M90.8492 45.1377H54.4492V49.7377H90.8492V45.1377Z" fill="#D5DAE5"/>
<path d="M90.8492 55.2378H54.4492V59.8378H90.8492V55.2378Z" fill="#D5DAE5"/>
</g>
<defs>
<clipPath id="clip0_3110_16560">
<rect width="128" height="107" fill="white" transform="translate(0.5 0.639893)"/>
</clipPath>
</defs>
</svg>
