<svg width="196" height="241" viewBox="0 0 196 241" fill="none" xmlns="http://www.w3.org/2000/svg">
<path d="M17.9937 74.634L21.8581 73.4709C22.1381 73.3897 22.1381 72.9841 21.8581 72.9029L17.9937 71.7398C17.8944 71.7128 17.8221 71.6406 17.795 71.5415L16.6303 67.6916C16.549 67.412 16.1428 67.412 16.0615 67.6916L14.8967 71.5415C14.8697 71.6406 14.7974 71.7128 14.6981 71.7398L10.8427 72.9029C10.5628 72.9841 10.5628 73.3897 10.8427 73.4709L14.7072 74.634C14.8065 74.661 14.8787 74.7332 14.9058 74.8324L16.0705 78.6913C16.1517 78.9708 16.5581 78.9708 16.6394 78.6913L17.8041 74.8324C17.8221 74.7332 17.8944 74.661 17.9937 74.634Z" fill="#EAEEF9"/>
<path d="M141.23 29.4652L145.182 30.2835C145.467 30.3455 145.661 29.9889 145.454 29.7843L142.613 26.9214C142.538 26.8504 142.509 26.7525 142.533 26.6525L143.348 22.714C143.41 22.4296 143.053 22.236 142.848 22.443L139.985 25.2719C139.914 25.3463 139.816 25.3752 139.716 25.3517L135.772 24.5375C135.487 24.4756 135.293 24.8321 135.501 25.0368L138.342 27.8997C138.416 27.9708 138.445 28.0685 138.421 28.1687L137.602 32.1151C137.54 32.3994 137.897 32.5929 138.102 32.3859L140.969 29.5492C141.032 29.4706 141.13 29.4417 141.23 29.4652Z" fill="#EAEEF9"/>
<path d="M138.803 127.092L141.823 124.417C142.043 124.226 141.872 123.858 141.584 123.902L137.587 124.465C137.486 124.482 137.39 124.447 137.324 124.368L134.649 121.361C134.458 121.141 134.089 121.312 134.133 121.599L134.693 125.582C134.71 125.683 134.675 125.779 134.596 125.845L131.585 128.516C131.365 128.707 131.535 129.075 131.823 129.032L135.82 128.468C135.921 128.451 136.017 128.487 136.083 128.565L138.762 131.58C138.953 131.8 139.322 131.63 139.278 131.342L138.714 127.351C138.689 127.254 138.724 127.158 138.803 127.092Z" fill="#D6DCE8"/>
<path d="M108.05 99.7973L111.432 98.7797C111.676 98.7087 111.676 98.3536 111.432 98.2826L108.05 97.265C107.963 97.2414 107.9 97.1783 107.876 97.0915L106.857 93.723C106.786 93.4784 106.431 93.4784 106.36 93.723L105.34 97.0915C105.317 97.1783 105.253 97.2414 105.167 97.265L101.793 98.2826C101.548 98.3536 101.548 98.7087 101.793 98.7797L105.174 99.7973C105.261 99.8209 105.325 99.884 105.348 99.9708L106.367 103.347C106.439 103.592 106.794 103.592 106.865 103.347L107.884 99.9708C107.9 99.884 107.963 99.8209 108.05 99.7973Z" fill="#D6DCE8"/>
<path d="M43.1674 147.174L46.5487 146.01C46.7937 145.929 46.7937 145.523 46.5487 145.442L43.1674 144.279C43.0805 144.252 43.0173 144.18 42.9936 144.08L41.9744 140.23C41.9033 139.951 41.5478 139.951 41.4767 140.23L40.4575 144.08C40.4338 144.18 40.3706 144.252 40.2837 144.279L36.9103 145.442C36.6653 145.523 36.6653 145.929 36.9103 146.01L40.2916 147.174C40.3785 147.2 40.4417 147.271 40.4655 147.371L41.4846 151.23C41.5557 151.51 41.9112 151.51 41.9823 151.23L43.0015 147.371C43.0173 147.271 43.0805 147.2 43.1674 147.174Z" fill="#D6DCE8"/>
<path d="M37.5811 90.078L39.9962 89.3512C40.1712 89.3005 40.1712 89.047 39.9962 88.9961L37.5811 88.2693C37.5189 88.2524 37.4737 88.2074 37.4569 88.1453L36.7289 85.7394C36.6781 85.5647 36.4242 85.5647 36.3733 85.7394L35.6453 88.1453C35.6285 88.2074 35.5833 88.2524 35.5213 88.2693L33.1117 88.9961C32.9367 89.047 32.9367 89.3005 33.1117 89.3512L35.5269 90.078C35.589 90.0949 35.6341 90.1401 35.651 90.202L36.379 92.6136C36.4298 92.7883 36.6837 92.7883 36.7345 92.6136L37.4624 90.202C37.4737 90.1401 37.5189 90.0949 37.5811 90.078Z" fill="#D6DCE8"/>
<path d="M176.737 91.671L179.152 90.9443C179.328 90.8934 179.328 90.6399 179.152 90.5892L176.737 89.8624C176.674 89.8454 176.63 89.8003 176.613 89.7384L175.884 87.3323C175.835 87.1578 175.58 87.1578 175.529 87.3323L174.802 89.7384C174.785 89.8003 174.739 89.8454 174.678 89.8624L172.267 90.5892C172.093 90.6399 172.093 90.8934 172.267 90.9443L174.682 91.671C174.745 91.688 174.79 91.733 174.806 91.7951L175.535 94.2067C175.586 94.3813 175.839 94.3813 175.89 94.2067L176.619 91.7951C176.63 91.733 176.674 91.688 176.737 91.671Z" fill="#EAEEF9"/>
<path d="M55.4325 56.458L57.8478 55.7311C58.0227 55.6804 58.0227 55.4268 57.8478 55.3762L55.4325 54.6492C55.3705 54.6323 55.3253 54.5873 55.3084 54.5252L54.5805 52.1193C54.5296 51.9446 54.2756 51.9446 54.2249 52.1193L53.4969 54.5252C53.4799 54.5873 53.4349 54.6323 53.3727 54.6492L50.9632 55.3762C50.7883 55.4268 50.7883 55.6804 50.9632 55.7311L53.3784 56.458C53.4404 56.4748 53.4856 56.52 53.5026 56.5819L54.2306 58.9935C54.2813 59.1682 54.5353 59.1682 54.586 58.9935L55.314 56.5819C55.3253 56.52 55.3705 56.4748 55.4325 56.458Z" fill="#D6DCE8"/>
<path d="M19.4639 137.448L21.8791 136.721C22.054 136.67 22.054 136.417 21.8791 136.366L19.4639 135.639C19.4019 135.622 19.3567 135.577 19.3397 135.515L18.6117 133.109C18.561 132.935 18.307 132.935 18.2563 133.109L17.5283 135.515C17.5113 135.577 17.4661 135.622 17.4041 135.639L14.9945 136.366C14.8195 136.417 14.8195 136.67 14.9945 136.721L17.4098 137.448C17.4718 137.465 17.517 137.51 17.5339 137.572L18.2618 139.984C18.3127 140.158 18.5667 140.158 18.6174 139.984L19.3454 137.572C19.3567 137.51 19.4019 137.465 19.4639 137.448Z" fill="#EAEEF9"/>
<g filter="url(#filter0_d_2047_15076)">
<path d="M123.102 83.2702L123.1 91.6297C123.099 94.0182 122.928 95.8949 122.244 98.1128C120.363 105.449 115.065 111.251 108.402 114.323C107.206 114.835 106.181 115.688 105.668 116.711C104.984 117.735 104.471 119.1 104.471 120.465C104.47 123.195 106.007 125.583 108.398 126.777C116.256 130.358 121.891 137.522 123.084 146.223C123.255 147.246 123.255 148.27 123.255 149.464L123.252 157.824C123.252 158.847 123.081 159.871 123.081 160.724L72.8556 160.733C72.685 159.88 72.6852 158.686 72.6861 157.832L72.6882 149.473C72.6883 148.62 72.8593 147.767 72.8595 146.914C72.8593 146.573 73.0304 146.061 73.0307 145.549C74.4001 137.018 79.868 130.024 87.5566 126.61C89.9487 125.586 91.487 123.026 91.4877 120.297C91.4878 119.103 91.1467 117.738 90.4633 116.715C90.4637 116.544 90.2929 116.544 90.2929 116.544C89.6099 115.52 88.5851 114.838 87.5603 114.156C82.2654 111.768 77.9954 107.674 75.2637 102.386C74.5807 101.022 73.8977 99.6568 73.5565 98.1215C73.3857 97.7804 73.3859 97.2685 73.3859 96.9273C73.0448 95.2213 72.7036 93.3447 72.7042 91.4681L72.7065 83.1085C72.7065 82.9379 72.7066 82.5968 72.7067 82.2555L123.273 82.2466C123.102 82.7584 123.102 82.929 123.102 83.2702Z" fill="url(#paint0_linear_2047_15076)"/>
</g>
<path d="M104.131 104.774L83.4593 105.796L75.4299 102.554C74.7467 101.19 74.0635 99.8248 73.7218 98.2894C73.5511 97.9482 73.551 97.4364 73.5511 97.0952C81.5807 93.5131 87.731 91.9779 99.0062 96.9258C100.885 97.7789 102.594 98.632 104.644 99.6557C122.582 109.21 104.131 104.774 104.131 104.774Z" fill="#BAC3D1"/>
<path d="M122.243 98.2895C120.363 105.625 115.067 111.425 108.404 114.496C107.208 115.007 106.183 115.86 105.671 116.884L105.5 116.884C102.766 116.884 100.374 119.272 100.374 122.001L100.373 147.42L95.4182 147.421L95.4198 121.831C95.42 119.101 93.1992 116.713 90.2945 116.713C89.6116 115.689 88.5866 115.006 87.5616 114.324C82.2655 111.935 77.9949 107.841 75.2616 102.552C74.5783 101.187 73.895 99.8224 73.5535 98.2871C85.1704 103.406 92.6874 99.994 98.6671 97.0942C100.546 96.2413 102.255 95.3884 103.963 94.706C110.626 92.1474 116.606 93.8537 122.243 98.2895Z" fill="#D5DDEA"/>
<path d="M123.093 149.469L123.092 157.83C123.093 158.852 122.922 159.876 122.922 160.729L78.1615 160.727L72.6942 156.804L72.6944 149.298C72.6952 148.443 72.6952 147.591 72.8659 146.738C72.8657 146.397 73.0367 145.885 73.0367 145.373C73.2076 145.373 73.2072 145.544 73.3781 145.544C73.5494 145.714 73.7201 145.714 73.8909 145.714C86.7037 151.174 94.3916 146.569 100.884 143.327C101.909 142.816 103.105 142.303 104.13 141.963C110.964 139.575 117.114 141.451 122.922 146.058C122.923 147.252 123.093 148.276 123.093 149.469Z" fill="#D5DDEA"/>
<path d="M126.004 84.9855L69.9682 84.9828C68.7724 84.9827 67.7473 83.9591 67.7473 82.9355L67.7477 77.4764C67.7476 76.2822 68.7728 75.4293 69.9687 75.4293L126.175 75.432C127.371 75.4322 128.396 76.2852 128.396 77.4793L128.396 82.7679C128.054 83.962 127.2 84.9856 126.004 84.9855Z" fill="url(#paint1_linear_2047_15076)"/>
<path d="M125.996 165.506L69.96 165.504C68.7645 165.503 67.7398 164.65 67.7396 163.456L67.7397 158.168C67.7396 156.974 68.765 156.12 69.9604 156.121L126.168 156.123C127.363 156.124 128.389 156.976 128.388 158.171L128.388 163.459C128.046 164.653 127.192 165.507 125.996 165.506Z" fill="url(#paint2_linear_2047_15076)"/>
<defs>
<filter id="filter0_d_2047_15076" x="50.6875" y="71.2466" width="94.5859" height="122.486" filterUnits="userSpaceOnUse" color-interpolation-filters="sRGB">
<feFlood flood-opacity="0" result="BackgroundImageFix"/>
<feColorMatrix in="SourceAlpha" type="matrix" values="0 0 0 0 0 0 0 0 0 0 0 0 0 0 0 0 0 0 127 0" result="hardAlpha"/>
<feOffset dy="11"/>
<feGaussianBlur stdDeviation="11"/>
<feColorMatrix type="matrix" values="0 0 0 0 0.397708 0 0 0 0 0.47749 0 0 0 0 0.575 0 0 0 0.27 0"/>
<feBlend mode="normal" in2="BackgroundImageFix" result="effect1_dropShadow_2047_15076"/>
<feBlend mode="normal" in="SourceGraphic" in2="effect1_dropShadow_2047_15076" result="shape"/>
</filter>
<linearGradient id="paint0_linear_2047_15076" x1="97.9739" y1="80.4357" x2="97.9886" y2="161.574" gradientUnits="userSpaceOnUse">
<stop stop-color="#FDFEFF"/>
<stop offset="0.9964" stop-color="#ECF0F5"/>
</linearGradient>
<linearGradient id="paint1_linear_2047_15076" x1="67.7197" y1="80.207" x2="128.407" y2="80.2099" gradientUnits="userSpaceOnUse">
<stop stop-color="#B0BACC"/>
<stop offset="1" stop-color="#969EAE"/>
</linearGradient>
<linearGradient id="paint2_linear_2047_15076" x1="67.7124" y1="160.812" x2="128.399" y2="160.816" gradientUnits="userSpaceOnUse">
<stop stop-color="#B0BACC"/>
<stop offset="1" stop-color="#969EAE"/>
</linearGradient>
</defs>
</svg>
