<svg width="41" height="49" viewBox="0 0 41 49" fill="none" xmlns="http://www.w3.org/2000/svg">
<path fill-rule="evenodd" clip-rule="evenodd" d="M32.3987 37.4368C37.1585 33.6749 40.2266 27.7592 40.2266 21.1063C40.2266 9.74058 31.2723 0.526855 20.2266 0.526855C9.18087 0.526855 0.226562 9.74058 0.226562 21.1063C0.226562 27.2107 2.8096 32.6944 6.91238 36.4632C6.96305 36.5332 7.01946 36.6015 7.08181 36.6677C9.59565 39.3379 11.7121 41.1598 13.8593 43.0082C15.4223 44.3537 17.0017 45.7133 18.7625 47.4244C19.5736 48.2125 20.8763 48.2105 21.6773 47.412C23.8516 45.2445 25.912 43.385 27.9017 41.5894C29.4363 40.2045 30.9287 38.8576 32.3987 37.4368Z" fill="#A12B94"/>
<ellipse cx="20.2235" cy="21.1067" rx="9.55162" ry="9.82834" fill="white"/>
</svg>
