<svg width="16" height="16" viewBox="0 0 16 16" fill="none" xmlns="http://www.w3.org/2000/svg">
<path fill-rule="evenodd" clip-rule="evenodd" d="M5.91459 11.2893V4.93595C5.91459 4.06236 6.61593 3.34761 7.49064 3.34761H14.5828V2.55343C14.5828 1.67984 13.8736 0.965088 13.0068 0.965088H1.97448C1.09978 0.965088 0.398438 1.67984 0.398438 2.55343V13.6718C0.398438 14.5454 1.09978 15.2602 1.97448 15.2602H13.0068C13.8736 15.2602 14.5828 14.5454 14.5828 13.6718V12.8777H7.49064C6.61593 12.8777 5.91459 12.1629 5.91459 11.2893ZM8.28615 5.43225C7.84732 5.43225 7.48828 5.78404 7.48828 6.21401V10.9046C7.48828 11.3346 7.84732 11.6864 8.28615 11.6864H15.467V5.43225H8.28615ZM10.5954 9.89957C9.8596 9.89957 9.26562 9.30096 9.26562 8.5594C9.26562 7.81785 9.8596 7.21924 10.5954 7.21924C11.3312 7.21924 11.9252 7.81785 11.9252 8.5594C11.9252 9.30096 11.3312 9.89957 10.5954 9.89957Z" fill="#A12B94"/>
</svg>
