<svg width="16" height="13" viewBox="0 0 16 13" fill="none" xmlns="http://www.w3.org/2000/svg">
<path d="M16 1.53953C15.412 1.80078 14.7787 1.97673 14.1147 2.0567C14.7933 1.65016 15.312 1.00769 15.5587 0.241259C14.924 0.617143 14.2213 0.890393 13.4733 1.03701C12.876 0.398544 12.0213 0 11.0787 0C8.95867 0 7.40133 1.97673 7.88 4.02943C5.15333 3.89214 2.73333 2.58587 1.11467 0.601148C0.254667 2.07536 0.669333 4.00543 2.13067 4.98247C1.59333 4.96514 1.088 4.81718 0.645333 4.57193C0.609333 6.09146 1.7 7.51369 3.27867 7.83092C2.81733 7.95622 2.31067 7.98554 1.796 7.88691C2.21333 9.19051 3.428 10.1382 4.86267 10.1649C3.48 11.2472 1.74267 11.7311 0 11.5258C1.45333 12.4575 3.17733 13 5.03067 13C11.1267 13 14.5693 7.85358 14.3613 3.23767C15.004 2.77648 15.56 2.19799 16 1.53953Z" fill="#718096"/>
</svg>
