<svg width="26" height="26" viewBox="0 0 26 26" fill="none" xmlns="http://www.w3.org/2000/svg">
<path fill-rule="evenodd" clip-rule="evenodd" d="M11.346 16.8289V9.27337C11.346 8.23448 12.1837 7.38448 13.2284 7.38448H21.699V6.44004C21.699 5.40115 20.8519 4.55115 19.8166 4.55115H6.64017C5.59546 4.55115 4.75781 5.40115 4.75781 6.44004V19.6623C4.75781 20.7011 5.59546 21.5511 6.64017 21.5511H19.8166C20.8519 21.5511 21.699 20.7011 21.699 19.6623V18.7178H13.2284C12.1837 18.7178 11.346 17.8678 11.346 16.8289ZM14.1813 9.86365C13.6572 9.86365 13.2284 10.282 13.2284 10.7933V16.3715C13.2284 16.8828 13.6572 17.3011 14.1813 17.3011H22.7578V9.86365H14.1813ZM16.9343 15.1761C16.0555 15.1761 15.346 14.4643 15.346 13.5824C15.346 12.7005 16.0555 11.9886 16.9343 11.9886C17.8131 11.9886 18.5225 12.7005 18.5225 13.5824C18.5225 14.4643 17.8131 15.1761 16.9343 15.1761Z" fill="#1A202C"/>
</svg>
